<?xml version="1.0" standalone="no"?>
<!DOCTYPE svg PUBLIC "-//W3C//DTD SVG 20010904//EN"
 "http://www.w3.org/TR/2001/REC-SVG-20010904/DTD/svg10.dtd">
<svg version="1.0" xmlns="http://www.w3.org/2000/svg"
 width="402.000000pt" height="431.000000pt" viewBox="0 0 402.000000 431.000000"
 preserveAspectRatio="xMidYMid meet">

<g transform="translate(0.000000,431.000000) scale(0.100000,-0.100000)"
fill="#000000" stroke="none">
<path d="M1038 3003 c-27 -7 -23 -59 6 -90 26 -28 24 -25 104 -104 31 -31 71
-73 87 -94 17 -20 36 -42 43 -48 19 -17 165 -155 177 -167 78 -80 275 -267
294 -280 11 -8 24 -22 27 -32 3 -9 14 -20 25 -23 10 -4 19 -13 19 -22 0 -16
-36 -53 -52 -53 -7 0 -42 -30 -90 -78 -42 -42 -61 -60 -80 -79 -13 -12 -27
-27 -33 -32 -5 -6 -46 -44 -90 -86 -44 -41 -84 -80 -90 -85 -26 -27 -56 -56
-130 -125 -84 -80 -84 -79 -121 -116 -31 -32 -52 -49 -59 -49 -3 0 -17 -11
-31 -25 -14 -14 -29 -25 -35 -25 -6 0 -9 -18 -7 -42 l3 -43 789 -3 c841 -2
806 -4 806 46 0 12 5 22 10 22 6 0 10 20 10 45 0 25 5 45 10 45 6 0 10 16 10
35 0 19 5 35 10 35 6 0 10 18 10 39 0 22 4 41 9 43 6 2 13 49 17 106 l7 102
-54 0 c-56 0 -89 -20 -89 -55 0 -8 -4 -15 -10 -15 -5 0 -10 -7 -10 -15 0 -8
-4 -15 -10 -15 -5 0 -10 -7 -10 -15 0 -9 -11 -26 -25 -39 -14 -13 -25 -32 -26
-42 0 -11 -3 -14 -6 -7 -5 13 -10 10 -58 -34 -13 -13 -28 -23 -34 -23 -5 0
-11 -6 -13 -12 -4 -10 -108 -14 -467 -16 l-463 -3 25 27 c32 34 29 31 122 119
44 41 83 79 88 83 4 4 16 17 26 30 11 12 29 25 41 27 12 2 30 15 41 27 10 13
22 26 26 30 5 4 44 42 88 83 44 42 85 80 90 86 29 29 55 54 108 104 31 30 57
62 57 70 0 20 -18 41 -145 160 -74 69 -104 98 -130 125 -5 5 -46 44 -90 85
-44 42 -84 80 -90 86 -38 37 -58 57 -77 76 -13 12 -27 27 -33 33 -5 5 -30 28
-54 50 l-43 41 418 -3 c323 -2 418 -6 422 -15 2 -7 11 -13 21 -13 9 0 23 -9
31 -20 8 -11 20 -20 26 -20 17 0 104 -85 104 -101 0 -8 9 -21 20 -29 11 -8 20
-19 20 -25 0 -6 9 -17 20 -25 11 -8 20 -18 20 -23 0 -5 6 -15 14 -23 16 -16
96 -19 96 -4 0 6 7 10 15 10 10 0 15 11 15 35 0 19 -4 35 -9 35 -5 0 -12 23
-16 50 -4 28 -11 50 -16 50 -5 0 -9 7 -9 15 0 15 -4 25 -28 72 -7 13 -12 32
-12 43 0 12 -4 19 -9 15 -5 -3 -13 19 -16 49 l-7 54 -45 6 c-52 7 -1478 6
-1505 -1z"/>
</g>
</svg>
